<?xml version="1.0" encoding="UTF-8" standalone="no"?>
<!-- Created with Inkscape (http://www.inkscape.org/) -->

<svg
   xmlns:dc="http://purl.org/dc/elements/1.1/"
   xmlns:cc="http://creativecommons.org/ns#"
   xmlns:rdf="http://www.w3.org/1999/02/22-rdf-syntax-ns#"
   xmlns:svg="http://www.w3.org/2000/svg"
   xmlns="http://www.w3.org/2000/svg"
   xmlns:sodipodi="http://sodipodi.sourceforge.net/DTD/sodipodi-0.dtd"
   xmlns:inkscape="http://www.inkscape.org/namespaces/inkscape"
   width="512mm"
   height="512mm"
   viewBox="0 0 512 512"
   version="1.1"
   id="svg8"
   inkscape:version="0.92.4 (5da689c313, 2019-01-14)"
   sodipodi:docname="d100.svg">
  <defs
     id="defs2" />
  <sodipodi:namedview
     id="base"
     pagecolor="#ffffff"
     bordercolor="#666666"
     borderopacity="1.0"
     inkscape:pageopacity="0.0"
     inkscape:pageshadow="2"
     inkscape:zoom="0.35"
     inkscape:cx="900.19106"
     inkscape:cy="883.65026"
     inkscape:document-units="mm"
     inkscape:current-layer="layer1"
     showgrid="false"
     inkscape:window-width="1920"
     inkscape:window-height="1017"
     inkscape:window-x="3832"
     inkscape:window-y="-8"
     inkscape:window-maximized="1"
     fit-margin-top="0"
     fit-margin-left="0"
     fit-margin-right="0"
     fit-margin-bottom="0"
     inkscape:pagecheckerboard="true" />
  <metadata
     id="metadata5">
    <rdf:RDF>
      <cc:Work
         rdf:about="">
        <dc:format>image/svg+xml</dc:format>
        <dc:type
           rdf:resource="http://purl.org/dc/dcmitype/StillImage" />
        <dc:title></dc:title>
      </cc:Work>
    </rdf:RDF>
  </metadata>
  <g
     inkscape:label="Layer 1"
     inkscape:groupmode="layer"
     id="layer1"
     transform="translate(-6.3979649,303.29304)">
    <path
       id="path20"
       d="M 101.27147,92.251542 136.02073,22.441599 62.356658,-69.616124 44.199174,125.38691 96.658771,101.45151 Z M 64.09932,32.561751 61.19152,22.790531 89.205505,7.7942985 91.836731,16.250361 a 90.850932,90.850932 45 0 0 -2.232457,11.126135 107.48886,107.48886 0 0 0 -1.297566,15.446626 109.6067,109.6067 0 0 0 0.869103,14.079798 74.328074,74.328074 0 0 0 2.427573,12.845573 l -8.075539,4.381694 Q 79.277478,59.149607 80.961733,39.627244 82.171347,27.440342 83.860023,21.982181 Z M 231.60957,-6.112122 265.44421,-51.025843 71.92976,-77.454044 145.58262,14.809284 221.33889,-3.5970261 Z m -30.01834,-17.871414 a 18.465165,18.465165 0 0 1 -14.92477,6.318513 34.10912,34.10912 0 0 1 -11.33175,-2.626099 l 5.4994,-6.591611 a 18.350722,18.350722 0 0 0 5.66512,1.543993 q 4.56112,0.370261 7.20431,-2.581341 l 0.20666,-0.243027 a 4.1520904,4.1520904 0 0 0 0.80956,-4.305553 c -0.52371,-1.53826 -2.10818,-2.886252 -4.66129,-3.988253 q -5.09856,-2.18222 -9.05257,-0.199739 a 15.292268,15.292268 0 0 0 -4.22122,3.536736 l -0.80015,0.921695 -7.25069,-3.114852 q 2.64242,-3.283353 2.8189,-4.95027 0.35341,-2.865338 -4.19865,-4.817445 a 10.956941,10.956941 0 0 0 -5.74541,-0.922137 6.6904077,6.6904077 0 0 0 -4.32599,2.191523 l -0.17565,0.208728 q -2.00356,2.392475 -0.64393,4.427506 c 0.89966,1.396082 2.63312,2.623417 5.19699,3.678199 l -5.19971,6.24461 a 31.662742,31.662742 0 0 1 -6.56455,-3.994951 12.83046,12.83046 0 0 1 -3.4411,-4.972155 7.5236547,7.5236547 0 0 1 -0.18066,-4.307274 12.585501,12.585501 0 0 1 2.7357,-4.845251 l 0.51209,-0.58491 a 17.983605,17.983605 0 0 1 9.87322,-5.660428 20.698087,20.698087 0 0 1 12.7514,1.413834 q 4.54603,1.956905 6.19802,5.080565 a 5.3981033,5.3981033 0 0 1 0.71754,3.496947 l 0.0362,-0.02763 q 0.80228,-0.89536 4.53896,-1.569157 a 20.644724,20.644724 0 0 1 11.94227,1.649257 q 6.55194,2.802255 9.02883,7.927937 2.47737,5.125328 -2.45949,11.012843 z m 75.64044,-22.275789 -8.0052,102.074966 a 4.5873591,4.5873591 0 0 1 -0.71699,0.572427 l -0.0768,0.06259 q -1.71608,1.08627 -2.91615,-0.724145 a 12.44727,12.44727 0 0 1 -1.59391,-5.391303 25.316306,25.316306 0 0 1 0.71443,-9.130233 q 0.7872,-3.045416 3.74294,-10.814848 3.41921,-8.903726 3.89876,-15.263287 a 59.494222,59.494222 0 0 0 -0.0256,-11.8967835 l -18.04215,11.3112255 1.08849,9.79543 11.48914,-7.21534 a 23.412568,23.412568 0 0 1 -0.85402,3.832595 q -0.55158,1.760696 -2.18713,5.96215 l -1.72384,4.458704 a 59.777113,59.777113 0 0 0 -2.96318,9.585286 39.522655,39.522655 0 0 0 -0.50421,12.260545 q 0.91355,8.193285 3.93974,11.627545 c 1.67952,1.908021 3.63848,2.388558 5.86638,1.491087 L 262.42573,141.13824 241.69557,9.9542402 240.52845,2.6098263 Z M 121.57596,137.21025 q 4.1072,1.21144 5.30375,2.77112 c 0.81548,1.02152 0.68525,2.08473 -0.40975,3.16368 l -0.28568,0.22972 a 7.6458127,7.6458127 0 0 1 -4.37338,1.64265 19.191684,19.191684 0 0 1 -7.16722,-0.90182 q -3.97049,-1.17411 -5.23231,-2.73109 c -0.8396,-1.05165 -0.70992,-2.11356 0.32584,-3.1946 l 0.29824,-0.23861 a 7.5545157,7.5545157 0 0 1 4.44955,-1.59566 19.153108,19.153108 0 0 1 7.07705,0.83727 z m 111.74095,27.22328 -78.13482,-11.36543 0.59738,-0.47696 c 0.19142,-0.15173 0.48989,-0.39115 0.69226,-0.64048 q 3.57403,-3.58696 1.43012,-6.78683 -2.14342,-3.20032 -8.04157,-4.88984 a 34.575891,34.575891 0 0 0 -6.16106,-1.14808 24.367974,24.367974 0 0 0 -7.86355,0.60337 q -0.0955,-2.30125 -2.84814,-4.29123 a 23.970639,23.970639 0 0 0 -7.27116,-3.32395 35.439999,35.439999 0 0 0 -13.58798,-1.33338 q -6.18207,0.60125 -10.05218,3.96464 -0.40698,0.32492 -0.76086,0.7143 -4.013372,4.01666 -1.478786,7.65747 a 10.360294,10.360294 0 0 0 2.179226,2.25275 l -54.633708,-7.95669 55.214078,-25.2038 7.35819,2.93112 z m -91.44034,-13.32494 -2.28077,-0.33223 c -0.45523,-0.10551 -0.93067,-0.23524 -1.39642,-0.35288 -1.94817,-0.5772 -3.27634,-1.29802 -3.98711,-2.18837 -0.71037,-0.88991 -0.59636,-1.81265 0.35985,-2.77176 l 0.25792,-0.20445 a 6.6518314,6.6518314 0 0 1 3.83567,-1.4578 14.527815,14.527815 0 0 1 5.56893,0.60313 c 2.12704,0.63022 3.52223,1.38553 4.1793,2.26943 0.65692,0.88484 0.52125,1.8051 -0.42329,2.7541 l -0.26289,0.2108 a 6.5984674,6.5984674 0 0 1 -3.77099,1.46457 12.310324,12.310324 0 0 1 -2.07901,0.006 z m 109.78637,6.3888 L 228.98198,6.9336018 147.34191,26.817719 109.82851,102.05255 Z M 168.64311,52.273941 q 8.80782,-7.031143 17.27359,-3.692615 8.46683,3.337715 17.57815,14.751314 9.11096,11.413073 10.51449,20.43866 1.40318,9.025123 -7.40033,16.062692 -8.80826,7.031588 -17.29822,3.663818 -8.49038,-3.36833 -17.6013,-14.781381 -9.11134,-11.413568 -10.49085,-20.409048 -1.37895,-8.995874 7.42401,-16.033038 z m 23.5079,40.307722 q -4.45072,-3.002079 -11.10044,-11.332007 -6.34443,-7.947543 -8.45273,-13.161829 -2.10778,-5.21471 1.95522,-8.409625 4.03985,-3.224977 8.68155,-0.08158 4.64177,3.142451 11.00989,11.119647 6.65008,8.330429 8.54328,13.374162 1.89315,5.043808 -2.14614,8.268359 -4.02276,3.220627 -8.47374,0.219297 z"
       inkscape:connector-curvature="0"
       style="fill:#ffffff;stroke-width:0.64293748" />
    <path
       id="path20-0"
       d="m 436.79145,-113.7227 -77.95504,-1.99063 -52.30081,105.667684 184.40646,-65.955596 -43.8632,-37.428998 z m -38.38774,58.915408 -7.62689,6.764877 -25.43031,-19.051638 6.55169,-5.958384 a 90.850932,90.850932 0 0 0 11.02724,-2.678832 107.48886,107.48886 0 0 0 14.54778,-5.352075 109.6067,109.6067 0 0 0 12.39332,-6.738147 74.328074,74.328074 0 0 0 10.61611,-7.628838 l 7.38401,5.467234 q -11.78074,10.183083 -30.1858,16.907257 -11.55632,4.054091 -17.21672,4.83033 z M 292.5604,-190.27885 l -55.0048,-11.6832 57.83068,186.552665 52.4919,-105.744375 -48.69776,-60.87957 z m -3.51067,34.75855 a 18.465165,18.465165 0 0 1 12.034,10.85622 34.10912,34.10912 0 0 1 2.4089,11.37991 l -8.29818,-2.1985 a 18.350722,18.350722 0 0 0 -0.9947,-5.78685 q -1.59209,-4.29028 -5.38418,-5.43832 l -0.30753,-0.0846 a 4.1520904,4.1520904 0 0 0 -4.24431,1.08597 c -1.17275,1.1247 -1.72489,3.1305 -1.6446,5.9101 q 0.1769,5.54305 3.64477,8.28881 a 15.292268,15.292268 0 0 0 4.98933,2.33112 l 1.17362,0.33524 0.2413,7.88771 q -4.09249,-1.00716 -5.67779,-0.46273 -2.74627,0.89048 -2.59165,5.84127 a 10.956941,10.956941 0 0 0 1.59226,5.59685 6.6904077,6.6904077 0 0 0 3.81449,2.99451 l 0.26354,0.0712 q 3.01511,0.80474 4.28486,-1.28744 c 0.88518,-1.40536 1.26443,-3.49531 1.13719,-6.26464 l 7.85707,2.07352 a 31.662742,31.662742 0 0 1 -0.84634,7.63777 12.83046,12.83046 0 0 1 -3.05199,5.220121 7.5236547,7.5236547 0 0 1 -3.82734,1.98412 12.585501,12.585501 0 0 1 -5.54745,-0.43169 l -0.74662,-0.21675 a 17.983605,17.983605 0 0 1 -9.3027,-6.556021 20.698087,20.698087 0 0 1 -4.10757,-12.15421 q -0.14775,-4.94707 1.98512,-7.76451 a 5.3981033,5.3981033 0 0 1 2.86601,-2.12819 l -0.042,-0.017 q -1.15056,-0.34869 -3.34045,-3.45058 a 20.644724,20.644724 0 0 1 -3.55223,-11.52041 q -0.22914,-7.12233 3.3694,-11.53334 3.59807,-4.41133 11.02043,-2.42519 z m -52.15577,-59.13935 95.89446,-35.88357 a 4.5873591,4.5873591 0 0 1 0.82168,0.4081 l 0.0892,0.0428 q 1.70963,1.0962 0.57599,2.94894 a 12.44727,12.44727 0 0 1 -4.21268,3.72294 25.316306,25.316306 0 0 1 -8.57668,3.21112 q -3.09272,0.57373 -11.38344,1.17832 -9.51456,0.66392 -15.48092,2.91698 a 59.494222,59.494222 0 0 0 -10.77134,5.05105 l 17.87637,11.5713 8.41762,-5.12618 -11.39473,-7.36341 a 23.412568,23.412568 0 0 1 3.83437,-0.84562 q 1.82889,-0.24426 6.32791,-0.53759 l 4.76943,-0.32195 a 59.777113,59.777113 0 0 0 9.93951,-1.36537 39.522655,39.522655 0 0 0 11.32496,-4.72457 q 7.03957,-4.29075 8.87324,-8.48468 c 1.01943,-2.32845 0.62694,-4.30704 -1.12786,-5.94692 l 70.29978,-26.23107 -110.13212,74.22867 -6.16306,4.16169 z m 232.06284,63.53442 q -0.63787,-4.23431 0.26999,-5.97793 c 0.58107,-1.17085 1.59992,-1.50205 3.04045,-0.9657 l 0.32759,0.16378 a 7.6458127,7.6458127 0 0 1 3.33709,3.26937 19.191684,19.191684 0 0 1 2.21164,6.87687 q 0.61386,4.09472 -0.26395,5.89635 c -0.59827,1.20535 -1.61546,1.53666 -3.03297,1.05479 l -0.3423,-0.16961 a 7.5545157,7.5545157 0 0 1 -3.32667,-3.35826 19.153108,19.153108 0 0 1 -2.23203,-6.76782 z m -22.55105,-112.77672 22.72057,75.61743 -0.68461,-0.34006 c -0.21845,-0.10911 -0.56148,-0.27889 -0.873,-0.35678 q -4.76151,-1.72271 -6.75535,1.5721 -1.9945,3.29512 -1.03321,9.35462 a 34.575891,34.575891 0 0 0 1.56326,6.069 24.367974,24.367974 0 0 0 3.87019,6.87181 q -2.0453,1.05908 -2.68553,4.39488 a 23.970639,23.970639 0 0 0 0.0603,7.99461 35.439999,35.439999 0 0 0 4.53408,12.87841 q 3.15757,5.34877 7.84147,7.43486 0.46663,0.23109 0.96905,0.38727 5.33644,1.93986 7.56493,-1.89594 a 10.360294,10.360294 0 0 0 1.12069,-2.92708 l 15.87802,52.877608 -46.17688,-39.389388 -0.45319,-7.90753 z m 26.56776,88.50446 0.66286,2.20747 c 0.0967,0.45708 0.18006,0.94286 0.27043,1.41467 0.30013,2.00953 0.20825,3.51796 -0.29837,4.53842 -0.50646,1.01987 -1.39069,1.30653 -2.66409,0.84527 l -0.29417,-0.14726 a 6.6518314,6.6518314 0 0 1 -2.94223,-2.86013 14.527815,14.527815 0 0 1 -1.80684,-5.30212 c -0.32781,-2.1941 -0.2328,-3.77773 0.29055,-4.74681 0.52422,-0.9693 1.41572,-1.23522 2.67492,-0.78022 l 0.3022,0.1492 a 6.5984674,6.5984674 0 0 1 2.9211,2.7987 12.310324,12.310324 0 0 1 0.88404,1.8817 z m -40.6074,-102.20028 -126.87179,84.18696 52.52369,65.58762 84.03978,2.20304 z m -60.27915,119.71086 q -10.0948,-5.01107 -10.64685,-14.0946 -0.55324,-9.08412 5.94042,-22.16544 6.49329,-13.08064 14.08006,-18.16707 7.58661,-5.08589 17.6853,-0.0814 10.09531,5.01139 10.63108,14.12926 0.53543,9.11833 -5.9578,22.19907 -6.49362,13.08122 -14.06327,18.13312 -7.57027,5.05158 -17.6684,0.0473 z m 26.5963,-38.34015 q -0.83973,5.30246 -5.57906,14.84947 -4.52159,9.10883 -8.35636,13.2233 -3.83534,4.11409 -8.44799,1.78195 -4.63017,-2.29837 -3.74297,-7.83366 0.88639,-5.53491 5.42475,-14.67772 4.73948,-9.54766 8.51057,-13.39501 3.77109,-3.84747 8.40065,-1.54939 4.619,2.28471 3.77985,7.58709 z"
       inkscape:connector-curvature="0"
       style="fill:#ffffff;stroke-width:0.64293748" />
  </g>
</svg>
