<?xml version="1.0" encoding="UTF-8" standalone="no"?>
<!-- Created with Inkscape (http://www.inkscape.org/) -->

<svg
   xmlns:dc="http://purl.org/dc/elements/1.1/"
   xmlns:cc="http://creativecommons.org/ns#"
   xmlns:rdf="http://www.w3.org/1999/02/22-rdf-syntax-ns#"
   xmlns:svg="http://www.w3.org/2000/svg"
   xmlns="http://www.w3.org/2000/svg"
   xmlns:sodipodi="http://sodipodi.sourceforge.net/DTD/sodipodi-0.dtd"
   xmlns:inkscape="http://www.inkscape.org/namespaces/inkscape"
   width="512mm"
   height="512mm"
   viewBox="0 0 512 512"
   version="1.1"
   id="svg8"
   sodipodi:docname="fate.svg"
   inkscape:version="0.92.4 (5da689c313, 2019-01-14)">
  <defs
     id="defs2" />
  <sodipodi:namedview
     id="base"
     pagecolor="#ffffff"
     bordercolor="#666666"
     borderopacity="1.0"
     inkscape:pageopacity="0.0"
     inkscape:pageshadow="2"
     inkscape:zoom="0.35"
     inkscape:cx="1727.423"
     inkscape:cy="864.55023"
     inkscape:document-units="mm"
     inkscape:current-layer="layer1"
     showgrid="false"
     inkscape:pagecheckerboard="true"
     inkscape:snap-global="true"
     inkscape:snap-page="true"
     inkscape:window-width="1920"
     inkscape:window-height="1017"
     inkscape:window-x="3832"
     inkscape:window-y="-8"
     inkscape:window-maximized="1">
    <inkscape:grid
       type="xygrid"
       id="grid10" />
  </sodipodi:namedview>
  <metadata
     id="metadata5">
    <rdf:RDF>
      <cc:Work
         rdf:about="">
        <dc:format>image/svg+xml</dc:format>
        <dc:type
           rdf:resource="http://purl.org/dc/dcmitype/StillImage" />
        <dc:title></dc:title>
      </cc:Work>
    </rdf:RDF>
  </metadata>
  <g
     inkscape:label="Layer 1"
     inkscape:groupmode="layer"
     id="layer1"
     transform="translate(0,215)">
    <path
       style="fill:#ffffff;stroke-width:1.5656786"
       d="M 228.57227 0 C 101.94368 0 7.5791225e-14 101.94368 0 228.57227 L 0 1706.5469 C -1.8947806e-14 1833.1755 101.94368 1935.1191 228.57227 1935.1191 L 1706.5469 1935.1191 C 1833.1755 1935.1191 1935.1172 1833.1755 1935.1172 1706.5469 L 1935.1172 228.57227 C 1935.1172 101.94368 1833.1755 7.5791225e-14 1706.5469 0 L 228.57227 0 z M 825.82617 281.57422 L 1109.291 281.57422 L 1109.291 623.62109 L 1451.3379 623.62109 L 1451.3379 907.08594 L 1109.291 907.08594 L 1109.291 1249.1348 L 825.82617 1249.1348 L 825.82617 907.08594 L 483.7793 907.08594 L 483.7793 623.62109 L 825.82617 623.62109 L 825.82617 281.57422 z M 483.7793 1349.291 L 1451.3379 1349.291 L 1451.3379 1632.7559 L 483.7793 1632.7559 L 483.7793 1349.291 z "
       transform="matrix(0.26458333,0,0,0.26458333,0,-215)"
       id="rect3715" />
  </g>
</svg>
