<?xml version="1.0" encoding="UTF-8" standalone="no"?>
<svg
   xmlns:dc="http://purl.org/dc/elements/1.1/"
   xmlns:cc="http://creativecommons.org/ns#"
   xmlns:rdf="http://www.w3.org/1999/02/22-rdf-syntax-ns#"
   xmlns:svg="http://www.w3.org/2000/svg"
   xmlns="http://www.w3.org/2000/svg"
   xmlns:sodipodi="http://sodipodi.sourceforge.net/DTD/sodipodi-0.dtd"
   xmlns:inkscape="http://www.inkscape.org/namespaces/inkscape"
   viewBox="0 0 512 512"
   version="1.1"
   id="svg26"
   sodipodi:docname="pencil-brush-plus.svg"
   width="512"
   height="512"
   inkscape:version="0.92.4 (5da689c313, 2019-01-14)">
  <metadata
     id="metadata32">
    <rdf:RDF>
      <cc:Work
         rdf:about="">
        <dc:format>image/svg+xml</dc:format>
        <dc:type
           rdf:resource="http://purl.org/dc/dcmitype/StillImage" />
        <dc:title></dc:title>
      </cc:Work>
    </rdf:RDF>
  </metadata>
  <defs
     id="defs30" />
  <sodipodi:namedview
     pagecolor="#ffffff"
     bordercolor="#666666"
     borderopacity="1"
     objecttolerance="10"
     gridtolerance="10"
     guidetolerance="10"
     inkscape:pageopacity="0"
     inkscape:pageshadow="2"
     inkscape:window-width="1920"
     inkscape:window-height="1017"
     id="namedview28"
     showgrid="false"
     inkscape:pagecheckerboard="true"
     units="px"
     inkscape:zoom="1.1711456"
     inkscape:cx="-26.492851"
     inkscape:cy="293.08952"
     inkscape:window-x="1912"
     inkscape:window-y="-7"
     inkscape:window-maximized="1"
     inkscape:current-layer="svg26" />
  <g
     class=""
     transform="matrix(0.57324658,-0.57944813,0.57324658,0.57944813,-37.881114,246.02406)"
     id="g24">
    <path
       d="m 54.438,29.793 a 23.808,23.808 0 0 0 -1.204,0.012 c -4.688,0.157 -7.914,1.734 -10.113,3.933 -2.932,2.932 -4.76,7.689 -3.588,15.305 1.174,7.616 5.683,17.754 15.272,28.941 67.894,79.21 132.935,155.56 183.703,211.97 12.273,13.636 23.693,26.079 34.125,37.134 12.095,-31.902 34.57,-54.144 62.902,-64.715 C 324.71,252.174 312.599,241.06 299.338,229.125 242.93,178.357 166.578,113.314 87.369,45.42 76.183,35.83 66.044,31.322 58.428,30.148 a 29.555,29.555 0 0 0 -3.99,-0.355 z m 375.109,1.043 c -0.307,-0.003 -0.6,0.004 -0.875,0.023 -2.212,0.147 -3.34,0.654 -4.576,1.891 l -27.58,27.58 55.156,55.154 27.578,-27.58 c 1.238,-1.236 1.745,-2.362 1.89,-4.574 0.15,-2.21 -0.37,-5.434 -1.804,-9.164 -2.87,-7.46 -9.277,-16.667 -17.055,-24.445 -7.778,-7.778 -16.985,-14.185 -24.445,-17.055 -3.264,-1.255 -6.138,-1.81 -8.287,-1.83 z m -45.758,42.22 -9.9,9.901 9.9,9.898 12.727,12.729 9.9,9.898 12.729,12.729 9.898,9.9 9.9,-9.9 -55.154,-55.154 z m -22.627,22.628 -87.389,87.39 10.467,9.332 86.822,-86.822 z m 22.627,22.629 -86.092,86.09 10.469,9.331 85.523,-85.523 -9.9,-9.899 z m 22.629,22.624 -84.795,84.795 10.469,9.332 84.226,-84.226 -9.898,-9.9 h -0.002 z m -213.857,123.35 -119.897,119.899 9.898,9.898 119.342,-119.342 z m 157.66,12.147 c -30.461,7.627 -53.24,29.184 -63.608,65.218 5.652,5.785 10.956,11.085 15.78,15.707 7.58,7.264 14.096,13.007 19.21,16.957 1.777,-17.225 10.045,-33.062 21.645,-44.691 10.601,-10.628 24.496,-18.006 39.125,-19.092 -3.87,-4.836 -9.139,-10.75 -15.629,-17.523 -4.838,-5.047 -10.416,-10.623 -16.523,-16.576 z m -136.303,11.748 -118.629,118.627 9.9,9.902 118.075,-118.074 z m 21.361,23.894 -117.361,117.361 9.896,9.9 116.81,-116.806 z m 150.293,16.307 c -10.397,0.137 -20.929,5.28 -29.582,13.955 -11.537,11.565 -18.674,28.851 -16.267,45.701 5.334,37.342 23.75,65.81 49.46,81.236 22.728,13.636 51.452,17.35 83.643,6.983 -24.222,-4.01 -46.475,-30.705 -48.197,-50.649 10.63,12.814 23.94,24.547 38.426,31.75 -9.881,-22.578 -9.201,-45.453 -11.088,-64.322 -1.352,-13.522 -3.891,-24.982 -11.377,-35.162 -7.486,-10.18 -20.423,-19.8 -44.74,-27.906 a 31.062,31.062 0 0 0 -10.278,-1.586 z m -322.35,71.816 -0.003,0.002 0.002,0.002 0.002,-0.004 z m -0.001,0.004 -12.117,30.3 30.392,30.395 30.305,-12.12 -6.61,-6.612 -12.732,-12.727 -9.898,-9.898 -12.73,-12.728 z M 43.826,448.688 30.834,481.164 63.312,468.172 43.826,448.687 Z"
       id="path22"
       inkscape:connector-curvature="0"
       style="fill:#ffffff;fill-opacity:1" />
  </g>
</svg>
